<svg width="600" height="452" viewBox="0 0 600 452" fill="none" xmlns="http://www.w3.org/2000/svg">
<path d="M484.272 71.6C403.176 -36.988 240.672 -25.264 221.364 128.756C211.392 208.124 31.656 139.112 78.276 230.12C142.512 355.556 247.548 195.212 327.132 186.128C381.684 179.912 417.132 268.268 486.648 223.244C541.56 187.652 517.992 116.732 484.272 71.6Z" fill="#DE2A29"/>
<path opacity="0.9" d="M484.272 71.6C403.176 -36.988 240.672 -25.264 221.364 128.756C211.392 208.124 31.656 139.112 78.276 230.12C142.512 355.556 247.548 195.212 327.132 186.128C381.684 179.912 417.132 268.268 486.648 223.244C541.56 187.652 517.992 116.732 484.272 71.6Z" fill="white"/>
<path d="M300 451.196C428.499 451.196 532.668 445.114 532.668 437.612C532.668 430.11 428.499 424.028 300 424.028C171.501 424.028 67.332 430.11 67.332 437.612C67.332 445.114 171.501 451.196 300 451.196Z" fill="#F5F5F5"/>
<path opacity="0.1" d="M343.932 62.684L341.676 131.972L396 128.216L343.932 62.684Z" fill="#DE2A29"/>
<path opacity="0.1" d="M305.4 275.84L306.804 224.588L103.308 227.348L305.4 275.84Z" fill="#DE2A29"/>
<path d="M99.96 68.864H345.96V223.664C345.96 224.663 345.563 225.622 344.856 226.328C344.15 227.035 343.191 227.432 342.192 227.432H103.728C103.233 227.432 102.743 227.335 102.286 227.145C101.829 226.956 101.414 226.678 101.064 226.328C100.714 225.979 100.436 225.563 100.247 225.106C100.057 224.649 99.96 224.159 99.96 223.664V68.864Z" fill="#DE2A29"/>
<path opacity="0.7" d="M99.96 68.864H345.96V223.664C345.96 224.663 345.563 225.622 344.856 226.328C344.15 227.035 343.191 227.432 342.192 227.432H103.728C103.233 227.432 102.743 227.335 102.286 227.145C101.829 226.956 101.414 226.678 101.064 226.328C100.714 225.979 100.436 225.563 100.247 225.106C100.057 224.649 99.96 224.159 99.96 223.664V68.864Z" fill="white"/>
<path opacity="0.9" d="M321.204 79.208H124.68C122.804 79.208 121.284 80.7285 121.284 82.604V137.84C121.284 139.716 122.804 141.236 124.68 141.236H321.204C323.08 141.236 324.6 139.716 324.6 137.84V82.604C324.6 80.7285 323.08 79.208 321.204 79.208Z" fill="white"/>
<path opacity="0.7" d="M179.46 150.74H124.68C122.804 150.74 121.284 152.26 121.284 154.136V165.44C121.284 167.316 122.804 168.836 124.68 168.836H179.46C181.336 168.836 182.856 167.316 182.856 165.44V154.136C182.856 152.26 181.336 150.74 179.46 150.74Z" fill="#DE2A29"/>
<path opacity="0.7" d="M250.332 150.74H195.552C193.677 150.74 192.156 152.26 192.156 154.136V165.44C192.156 167.316 193.677 168.836 195.552 168.836H250.332C252.208 168.836 253.728 167.316 253.728 165.44V154.136C253.728 152.26 252.208 150.74 250.332 150.74Z" fill="#DE2A29"/>
<path opacity="0.7" d="M321.192 150.74H266.412C264.537 150.74 263.016 152.26 263.016 154.136V165.44C263.016 167.316 264.537 168.836 266.412 168.836H321.192C323.068 168.836 324.588 167.316 324.588 165.44V154.136C324.588 152.26 323.068 150.74 321.192 150.74Z" fill="#DE2A29"/>
<path opacity="0.3" d="M124.68 176.156H179.46C179.906 176.156 180.348 176.244 180.76 176.415C181.172 176.585 181.546 176.835 181.861 177.151C182.177 177.466 182.427 177.84 182.598 178.252C182.768 178.664 182.856 179.106 182.856 179.552V227.324H121.284V179.552C121.284 178.651 121.642 177.788 122.279 177.151C122.916 176.514 123.779 176.156 124.68 176.156Z" fill="#DE2A29"/>
<path opacity="0.3" d="M195.6 176.156H250.38C251.281 176.156 252.145 176.514 252.781 177.151C253.418 177.788 253.776 178.651 253.776 179.552V227.324H192.156V179.552C192.156 179.102 192.245 178.657 192.419 178.241C192.593 177.826 192.847 177.45 193.168 177.134C193.488 176.818 193.868 176.569 194.286 176.401C194.703 176.233 195.15 176.15 195.6 176.156Z" fill="#DE2A29"/>
<path opacity="0.3" d="M266.4 176.156H321.18C322.081 176.156 322.945 176.514 323.581 177.151C324.218 177.788 324.576 178.651 324.576 179.552V227.324H263.016V179.552C263.016 178.653 263.372 177.791 264.007 177.155C264.641 176.518 265.501 176.159 266.4 176.156Z" fill="#DE2A29"/>
<path d="M174.936 53.996H168.936V55.196H174.936V53.996Z" fill="#DE2A29"/>
<path d="M163.632 53.996H148.932V55.196H163.632V53.996Z" fill="#DE2A29"/>
<path d="M335.256 58.196H110.628C109.222 58.196 107.83 58.4739 106.532 59.0138C105.233 59.5537 104.055 60.3448 103.063 61.3418C102.072 62.3388 101.287 63.5219 100.755 64.8232C100.222 66.1244 99.9521 67.5181 99.96 68.9241H345.96C345.968 67.515 345.697 66.1184 345.162 64.8148C344.627 63.5112 343.839 62.3265 342.844 61.329C341.849 60.3316 340.666 59.5412 339.364 59.0034C338.061 58.4657 336.665 58.1913 335.256 58.196Z" fill="#DE2A29"/>
<path d="M115.068 63.524C115.07 63.9475 114.947 64.3621 114.713 64.7152C114.479 65.0683 114.146 65.3439 113.755 65.5071C113.364 65.6702 112.934 65.7135 112.518 65.6315C112.103 65.5495 111.721 65.3458 111.422 65.0463C111.122 64.7469 110.919 64.3652 110.837 63.9497C110.755 63.5343 110.798 63.1038 110.961 62.713C111.124 62.3222 111.4 61.9888 111.753 61.755C112.106 61.5212 112.521 61.3976 112.944 61.4C113.506 61.4031 114.045 61.6279 114.442 62.0256C114.84 62.4232 115.065 62.9616 115.068 63.524Z" fill="white"/>
<path d="M121.932 63.4161C121.932 63.8361 121.807 64.2468 121.574 64.5961C121.341 64.9454 121.009 65.2176 120.621 65.3784C120.233 65.5391 119.806 65.5812 119.394 65.4992C118.982 65.4173 118.603 65.215 118.306 64.9179C118.009 64.6209 117.807 64.2424 117.725 63.8304C117.643 63.4184 117.685 62.9913 117.846 62.6032C118.006 62.2151 118.279 61.8834 118.628 61.65C118.977 61.4166 119.388 61.2921 119.808 61.2921C120.37 61.2952 120.909 61.52 121.306 61.9176C121.704 62.3153 121.929 62.8537 121.932 63.4161Z" fill="white"/>
<path d="M128.796 63.4161C128.796 63.8361 128.671 64.2468 128.438 64.5961C128.205 64.9454 127.873 65.2176 127.485 65.3784C127.097 65.5391 126.67 65.5812 126.258 65.4992C125.846 65.4173 125.467 65.215 125.17 64.9179C124.873 64.6209 124.671 64.2424 124.589 63.8304C124.507 63.4184 124.549 62.9913 124.71 62.6032C124.87 62.2151 125.143 61.8834 125.492 61.65C125.841 61.4166 126.252 61.2921 126.672 61.2921C127.234 61.2952 127.773 61.52 128.17 61.9176C128.568 62.3153 128.793 62.8537 128.796 63.4161Z" fill="white"/>
<path d="M303.468 140.18H398.268V272.024C398.268 273.297 397.762 274.518 396.862 275.418C395.962 276.318 394.741 276.824 393.468 276.824H308.208C306.935 276.824 305.714 276.318 304.814 275.418C303.914 274.518 303.408 273.297 303.408 272.024V140.18H303.468Z" fill="#DE2A29"/>
<path opacity="0.8" d="M303.468 140.18H398.268V272.024C398.268 273.297 397.762 274.518 396.862 275.418C395.962 276.318 394.741 276.824 393.468 276.824H308.208C306.935 276.824 305.714 276.318 304.814 275.418C303.914 274.518 303.408 273.297 303.408 272.024V140.18H303.468Z" fill="white"/>
<path opacity="0.9" d="M387.24 147.308H314.46C313.161 147.308 312.108 148.361 312.108 149.66V174.668C312.108 175.967 313.161 177.02 314.46 177.02H387.24C388.539 177.02 389.592 175.967 389.592 174.668V149.66C389.592 148.361 388.539 147.308 387.24 147.308Z" fill="white"/>
<path opacity="0.7" d="M385.32 182.9H316.38C314.021 182.9 312.108 184.813 312.108 187.172V201.392C312.108 203.751 314.021 205.664 316.38 205.664H385.32C387.679 205.664 389.592 203.751 389.592 201.392V187.172C389.592 184.813 387.679 182.9 385.32 182.9Z" fill="#DE2A29"/>
<path opacity="0.7" d="M385.32 213.2H316.38C314.021 213.2 312.108 215.113 312.108 217.472V231.692C312.108 234.051 314.021 235.964 316.38 235.964H385.32C387.679 235.964 389.592 234.051 389.592 231.692V217.472C389.592 215.113 387.679 213.2 385.32 213.2Z" fill="#DE2A29"/>
<path opacity="0.7" d="M385.32 243.5H316.38C314.021 243.5 312.108 245.413 312.108 247.772V261.992C312.108 264.351 314.021 266.264 316.38 266.264H385.32C387.679 266.264 389.592 264.351 389.592 261.992V247.772C389.592 245.413 387.679 243.5 385.32 243.5Z" fill="#DE2A29"/>
<path d="M309.696 126.764H391.992C393.647 126.764 395.234 127.422 396.404 128.592C397.575 129.762 398.232 131.349 398.232 133.004V140.204H303.432V133.004C303.432 132.183 303.594 131.369 303.909 130.611C304.224 129.852 304.686 129.163 305.268 128.583C305.85 128.003 306.541 127.544 307.301 127.232C308.061 126.92 308.875 126.761 309.696 126.764Z" fill="#DE2A29"/>
<path d="M435.744 430.4H426.96L426.972 410.036H435.768L435.744 430.4Z" fill="#FFB573"/>
<path d="M506.376 413.588L497.964 416.132L488.7 397.664L497.112 395.12L506.376 413.588Z" fill="#FFB573"/>
<path d="M494.712 417.656C494.155 417.871 493.542 417.892 492.972 417.716C492.787 417.629 492.627 417.497 492.507 417.331C492.387 417.165 492.312 416.971 492.288 416.768C492.26 416.648 492.263 416.523 492.299 416.404C492.335 416.286 492.402 416.18 492.492 416.096C493.284 415.34 496.44 416.204 496.8 416.3C496.838 416.315 496.871 416.339 496.897 416.371C496.922 416.402 496.938 416.44 496.944 416.48C496.946 416.521 496.937 416.561 496.918 416.597C496.899 416.633 496.871 416.663 496.836 416.684C496.167 417.088 495.455 417.414 494.712 417.656ZM493.008 416.276C492.913 416.295 492.826 416.341 492.756 416.408C492.722 416.442 492.698 416.485 492.688 416.531C492.677 416.578 492.68 416.627 492.696 416.672C492.709 416.812 492.758 416.946 492.837 417.062C492.917 417.178 493.026 417.271 493.152 417.332C494.22 417.481 495.304 417.21 496.176 416.576C495.15 416.269 494.074 416.167 493.008 416.276Z" fill="#DE2A29"/>
<path d="M496.8 416.708H496.692C495.708 416.492 493.548 415.136 493.476 414.128C493.469 413.969 493.514 413.813 493.606 413.682C493.697 413.552 493.828 413.456 493.98 413.408C494.122 413.34 494.278 413.305 494.436 413.305C494.594 413.305 494.75 413.34 494.892 413.408C496.092 413.912 496.908 416.312 496.944 416.42C496.961 416.454 496.97 416.491 496.97 416.528C496.97 416.566 496.961 416.603 496.944 416.636L496.8 416.708ZM494.22 413.768C494.189 413.758 494.155 413.758 494.124 413.768C493.884 413.876 493.884 413.996 493.884 414.056C493.884 414.644 495.36 415.736 496.392 416.144C496.116 415.448 495.48 414.092 494.724 413.744C494.555 413.689 494.372 413.698 494.208 413.768H494.22Z" fill="#DE2A29"/>
<path d="M497.112 415.328L506.568 412.472C506.732 412.422 506.907 412.43 507.065 412.496C507.223 412.562 507.353 412.681 507.432 412.832L511.032 419.912C511.117 420.09 511.162 420.284 511.164 420.481C511.167 420.678 511.127 420.873 511.047 421.053C510.967 421.233 510.85 421.393 510.702 421.524C510.555 421.654 510.381 421.751 510.192 421.808C506.88 422.744 505.224 423.008 501.06 424.292C498.504 425.06 490.26 429.212 486.78 430.292C483.3 431.372 481.884 427.964 483.252 427.196C489.36 423.8 494.292 418.796 495.888 416.276C496.17 415.824 496.604 415.488 497.112 415.328Z" fill="#263238"/>
<path d="M423.336 430.916C422.591 430.989 421.843 430.798 421.224 430.376C421.085 430.252 420.98 430.094 420.919 429.917C420.858 429.741 420.843 429.552 420.876 429.368C420.884 429.251 420.922 429.139 420.987 429.042C421.053 428.945 421.143 428.867 421.248 428.816C422.34 428.216 425.796 430.016 426.18 430.22C426.22 430.238 426.253 430.27 426.272 430.309C426.292 430.348 426.298 430.393 426.288 430.436C426.279 430.479 426.257 430.518 426.224 430.548C426.192 430.578 426.152 430.598 426.108 430.604C425.196 430.798 424.268 430.902 423.336 430.916ZM421.824 429.104C421.688 429.098 421.553 429.122 421.428 429.176C421.389 429.201 421.355 429.234 421.33 429.274C421.305 429.313 421.29 429.358 421.284 429.404C421.267 429.526 421.279 429.65 421.319 429.767C421.358 429.884 421.425 429.989 421.512 430.076C422.028 430.556 423.48 430.628 425.424 430.304C424.302 429.7 423.084 429.294 421.824 429.104Z" fill="#DE2A29"/>
<path d="M426.072 430.616H425.988C424.944 430.136 422.928 428.216 423.132 427.244C423.132 427.016 423.36 426.716 423.936 426.668C424.149 426.631 424.368 426.644 424.576 426.704C424.784 426.764 424.976 426.871 425.136 427.016C426.204 427.94 426.336 430.304 426.336 430.412C426.336 430.448 426.327 430.483 426.311 430.514C426.294 430.546 426.27 430.572 426.24 430.592C426.189 430.619 426.129 430.628 426.072 430.616ZM424.08 427.016H423.96C423.576 427.016 423.552 427.208 423.54 427.256C423.42 427.844 424.74 429.344 425.832 429.992C425.781 429 425.415 428.05 424.788 427.28C424.588 427.12 424.336 427.039 424.08 427.052V427.016Z" fill="#DE2A29"/>
<path d="M427.056 429.38H436.656C436.828 429.378 436.995 429.437 437.127 429.547C437.259 429.657 437.348 429.811 437.376 429.98L438.768 437.804C438.802 437.997 438.792 438.195 438.741 438.384C438.689 438.573 438.596 438.748 438.469 438.897C438.342 439.046 438.183 439.165 438.005 439.246C437.826 439.327 437.632 439.367 437.436 439.364C433.98 439.304 429.036 439.1 424.632 439.1C419.544 439.1 415.128 439.376 409.164 439.376C405.564 439.376 404.712 435.776 406.236 435.404C413.184 433.892 418.8 433.736 424.908 430.064C425.549 429.647 426.292 429.41 427.056 429.38Z" fill="#263238"/>
<path d="M458.328 109.628C456.78 116.06 455.808 124.028 460.116 128.324C460.116 128.324 457.248 134.852 445.296 134.852C434.376 134.852 440.124 128.324 440.124 128.324C447.324 126.62 447.384 117.74 446.364 112.724L458.328 109.628Z" fill="#FFB573"/>
<path opacity="0.2" d="M426.972 410.048L426.96 420.536H435.756L435.768 410.048H426.972Z" fill="black"/>
<path opacity="0.2" d="M497.112 395.12L488.7 397.676L493.476 407.192L501.9 404.648L497.112 395.12Z" fill="black"/>
<path d="M477.696 136.364L466.416 142.844C466.416 142.844 478.248 170.444 477.084 174.908C475.488 180.908 474.684 193.16 472.224 201.116C473.196 202.208 476.484 204.164 477.804 204.116C482.604 194.516 490.428 178.136 489.972 172.58C488.94 159.884 477.696 136.364 477.696 136.364Z" fill="#FFB573"/>
<path d="M472.224 201.116L464.496 204.308L472.248 210.752C472.248 210.752 478.92 207.74 477.696 202.076L472.224 201.116Z" fill="#FFB573"/>
<path d="M460.176 211.22L467.484 216.704L472.248 210.752L464.496 204.308L460.176 211.22Z" fill="#FFB573"/>
<path d="M475.776 130.316C483.96 131.984 490.608 161.216 490.608 161.216L472.176 170.084C472.176 170.084 465.864 155.996 463.08 145.652C460.176 134.804 466.992 128.528 475.776 130.316Z" fill="#DE2A29"/>
<path opacity="0.2" d="M469.2 140.372C465.768 136.772 467.328 151.1 468.192 160.628C468.924 162.524 469.632 164.228 470.244 165.68C475.2 158.504 474 145.412 469.2 140.372Z" fill="black"/>
<path d="M440.4 130.988C440.4 127.868 439.944 126.392 440.796 125.24C441.648 124.088 458.544 122.72 461.46 124.04C462.456 124.484 463.032 128.972 461.784 130.976C459.96 133.88 440.4 130.988 440.4 130.988Z" fill="#DE2A29"/>
<path opacity="0.2" d="M440.4 130.988C440.4 127.868 439.944 126.392 440.796 125.24C441.648 124.088 458.544 122.72 461.46 124.04C462.456 124.484 463.032 128.972 461.784 130.976C459.96 133.88 440.4 130.988 440.4 130.988Z" fill="black"/>
<path d="M426.492 130.772C426.492 130.772 414.948 157.316 422.628 206.756H469.656C470.292 199.556 467.256 164.324 475.776 130.316C470.605 129.311 465.374 128.645 460.116 128.324C453.458 127.94 446.783 127.94 440.124 128.324C435.524 128.788 430.966 129.606 426.492 130.772Z" fill="#DE2A29"/>
<path d="M433.2 143.108L421.548 138.416C421.548 138.416 405.804 165.152 402.516 167.396C394.896 163.22 392.34 164.912 386.412 160.532C384.912 160.688 382.572 162.776 381.78 163.844C386.58 173.084 402.528 184.52 410.412 177.548C420.168 168.92 433.2 143.108 433.2 143.108Z" fill="#FFB573"/>
<path opacity="0.2" d="M434.664 139.94C432.912 135.428 429.24 133.544 425.268 134.204C423.516 139.736 420.468 151.892 420.036 170.204L424.596 171.236C424.596 171.236 437.676 147.656 434.664 139.94Z" fill="black"/>
<path d="M436.668 136.784C439.284 144.656 423.252 167.816 423.252 167.816L406.092 158.216C409.059 150.992 412.767 144.095 417.156 137.636C423.792 128.408 433.8 128.156 436.668 136.784Z" fill="#DE2A29"/>
<path d="M386.7 160.784L378.864 156.26L374.28 165.38C377.447 166.423 380.762 166.946 384.096 166.928L386.7 160.784Z" fill="#FFB573"/>
<path d="M375 156.26L369.396 161.588L374.28 165.38L378.864 156.26H375Z" fill="#FFB573"/>
<path d="M438.84 100.376C438.768 101.084 438.336 101.576 437.88 101.576C437.424 101.576 437.1 100.952 437.172 100.244C437.244 99.536 437.676 99.044 438.144 99.044C438.612 99.044 438.912 99.668 438.84 100.376Z" fill="#263238"/>
<path d="M439.464 100.436C438.403 102.557 437.063 104.526 435.48 106.292C435.935 106.668 436.469 106.938 437.042 107.081C437.615 107.225 438.213 107.238 438.792 107.12L439.464 100.436Z" fill="#ED893E"/>
<path d="M438 97.928L437.82 97.856C437.775 97.8249 437.737 97.7852 437.708 97.7393C437.679 97.6933 437.66 97.6419 437.651 97.5883C437.642 97.5346 437.644 97.4797 437.656 97.4267C437.669 97.3738 437.692 97.3239 437.724 97.28C438.101 96.714 438.603 96.2428 439.193 95.9035C439.782 95.5641 440.441 95.3658 441.12 95.324C441.174 95.3256 441.226 95.3377 441.275 95.3596C441.324 95.3816 441.368 95.413 441.405 95.452C441.442 95.491 441.471 95.5368 441.49 95.587C441.509 95.6371 441.518 95.6905 441.516 95.744C441.51 95.8555 441.462 95.9607 441.382 96.0385C441.302 96.1164 441.196 96.1612 441.084 96.164C440.554 96.2079 440.041 96.3736 439.585 96.6484C439.129 96.9231 438.743 97.2995 438.456 97.748C438.406 97.8195 438.336 97.8747 438.255 97.9067C438.174 97.9387 438.085 97.9461 438 97.928Z" fill="#263238"/>
<path d="M462.732 99.764C461.304 108.428 460.92 113.552 456.084 117.764C454.548 119.154 452.659 120.094 450.624 120.48C448.589 120.867 446.487 120.685 444.549 119.954C442.611 119.224 440.911 117.973 439.637 116.34C438.364 114.707 437.565 112.754 437.328 110.696C436.26 102.776 438.756 89.948 447.6 86.972C449.49 86.2789 451.53 86.0986 453.512 86.4494C455.494 86.8001 457.348 87.6695 458.885 88.969C460.422 90.2685 461.588 91.9518 462.264 93.8479C462.939 95.744 463.101 97.7852 462.732 99.764Z" fill="#FFB573"/>
<path d="M444.672 103.496C442.872 97.796 440.532 88.988 446.928 85.724C453.324 82.46 458.364 86.996 465.336 91.196C473.196 95.924 468.396 110.924 458.916 114.452C450.96 117.416 443.196 111.464 444.672 103.496Z" fill="#263238"/>
<path d="M445.368 92.924C439.728 94.448 435.84 90.824 438.624 86.648C442.152 81.332 456.024 82.724 461.22 88.472C466.416 94.22 449.28 96.968 445.368 92.924Z" fill="#263238"/>
<path d="M447.516 88.724C440.628 87.452 437.808 81.836 443.58 78.356C449.028 75.08 464.34 80.756 466.896 89.804C469.452 98.852 449.604 95.144 447.516 88.724Z" fill="#263238"/>
<path d="M465.876 93.032C466.92 92.192 471.072 90.992 471.54 95.636C470.026 94.1165 468.015 93.1923 465.876 93.032Z" fill="#263238"/>
<path d="M468.852 87.248C469.68 88.304 470.856 92.456 466.2 92.9C467.73 91.3928 468.671 89.3881 468.852 87.248Z" fill="#263238"/>
<path d="M449.628 103.1C449.001 104.972 447.684 106.534 445.944 107.468C443.64 108.668 442.044 106.772 442.344 104.324C442.596 102.128 444.096 98.84 446.58 98.648C449.064 98.456 450.384 100.808 449.628 103.1Z" fill="#FFB573"/>
<path d="M439.308 206.756C439.308 206.756 446.328 273.956 450.696 299.156C455.496 326.756 489.096 406.436 489.096 406.436L504.516 401.78C504.516 401.78 480.516 328.52 478.248 301.232C475.848 271.604 469.704 206.792 469.704 206.792L439.308 206.756Z" fill="#263238"/>
<path opacity="0.2" d="M450.12 230.252C449.424 229.196 448.764 228.836 448.128 229.052H448.008C447.861 229.111 447.723 229.192 447.6 229.292C447.471 229.399 447.351 229.515 447.24 229.64C447.168 229.712 447.108 229.796 447.036 229.88C446.964 229.964 446.856 230.132 446.76 230.276C446.542 230.628 446.346 230.992 446.172 231.368C446.076 231.596 445.968 231.836 445.872 232.076C445.776 232.316 445.632 232.688 445.512 233.024C445.392 233.36 445.2 233.936 445.056 234.428C445.056 234.56 444.972 234.68 444.936 234.812C444.9 234.944 444.78 235.364 444.696 235.64L444.516 236.36C444.384 236.84 444.264 237.32 444.144 237.824C444.024 238.328 443.904 238.916 443.784 239.48C443.784 239.672 443.7 239.876 443.652 240.068C443.508 240.788 443.364 241.532 443.22 242.276C445.152 259.004 447.468 278.18 449.484 291.56C449.628 291.128 449.772 290.672 449.916 290.18C450.535 287.952 451.036 285.693 451.416 283.412C454.404 266.168 454.632 237.128 450.12 230.252Z" fill="black"/>
<path d="M422.628 206.756C422.628 206.756 418.524 272.492 418.296 299.312C418.056 327.2 423.78 418.508 423.78 418.508H438.672C438.672 418.508 443.172 328.832 445.044 301.436C447.072 271.58 453.54 206.756 453.54 206.756H422.628Z" fill="#263238"/>
<path d="M439.86 413.948C439.92 413.948 439.644 418.808 439.644 418.808H422.472L421.992 413.348L439.86 413.948Z" fill="#DE2A29"/>
<path d="M503.292 396.308C503.676 397.064 505.308 401.804 505.308 401.804L488.4 406.928L485.628 402.368L503.292 396.308Z" fill="#DE2A29"/>
</svg>
