<svg width="226" height="199" viewBox="0 0 226 199" fill="none" xmlns="http://www.w3.org/2000/svg">
<rect width="226" height="199" fill="#DE2A29"/>
<rect x="14.5" y="16.5" width="194" height="163" stroke="white"/>
<path d="M115.12 87H111.556V84.336L108.892 87H105.328L102.232 83.868V77.676L105.328 74.544H111.196L108.244 77.64H105.76V83.868H111.556V71.448H101.764L104.428 68.316H112.024L115.12 71.448V87ZM131.68 71.448H122.788V74.544H127.684L130.816 77.676V83.868L127.684 87H119.224V83.868H127.252V77.676H122.356L119.224 74.544V71.448L122.356 68.316H128.512L131.68 71.448ZM138.974 76.236L147.866 67.452V71.268L144.734 74.364L147.866 77.532V87H144.338V76.776H138.974V87H135.41V61.692L138.974 58.128V76.236ZM177.818 74.544L174.758 77.748H171.23L177.818 87H173.39L171.626 84.336L168.962 87H162.302L159.206 83.868V77.856L162.41 74.544H164.93L160.97 69.684V65.256L164.066 62.124H168.53L171.626 65.256V67.884L168.062 71.448V65.256H164.498V68.316L168.962 74.544H177.818ZM171.302 83.868L167.198 77.748H162.77V83.868H171.302ZM114.688 109.256H109.108V131H105.544V109.256H100V106.124H114.688V109.256ZM121.391 109.256H117.827V105.692H121.391V109.256ZM121.391 131H117.827V115.052L121.391 111.452V131ZM140.093 131H136.565V128.336L133.973 131H130.337L127.241 127.868V115.448L130.337 112.316H136.565V106.088L140.093 102.56V131ZM136.565 127.868V112.748L133.829 115.448H130.805V127.868H136.565ZM149.938 109.256H146.374V105.692H149.938V109.256ZM149.938 131H146.374V115.052L149.938 111.452V131ZM169.54 112.316L166.444 115.448H158.884V127.868H164.644V118.544H168.208V137.228L165.112 140.324H154.888L157.948 137.228H164.644V128.264L161.08 131H158.452L155.32 127.868V115.448L158.452 112.316H169.54Z" fill="white"/>
<path d="M89.968 144H77.296L77.552 135.04L52.208 109.568L60.784 99.712H77.296V66.688H47.344V144H34.672V77.568L45.808 66.688H33.136V55.552H78.832L89.968 66.688V98.176L78.832 109.312H68.464V110.976L89.968 132.224V144Z" fill="white"/>
</svg>
