<svg width="47" height="45" viewBox="0 0 47 45" fill="none" xmlns="http://www.w3.org/2000/svg">
<path fill-rule="evenodd" clip-rule="evenodd" d="M45.3604 20.9769C45.3773 21.6583 44.9829 22.283 44.3604 22.5606L16.0123 35.2052C15.3914 35.4821 14.6651 35.3597 14.1692 34.8946C13.6735 34.4295 13.505 33.7124 13.7418 33.0752L17.9848 21.6551L13.1816 10.4591C12.9134 9.83439 13.0463 9.10985 13.5183 8.62072C13.9905 8.1317 14.7099 7.97342 15.3437 8.21931L44.2832 19.4446C44.9186 19.6911 45.3436 20.2955 45.3604 20.9769ZM39.2842 21.1274L17.8691 12.8208L21.3543 20.9444C21.5253 21.3428 21.5365 21.7917 21.3854 22.1982L18.3067 30.4843L39.2842 21.1274Z" fill="#CCCCCC"/>
</svg>
