<svg width="18" height="18" viewBox="0 0 18 18" fill="none" xmlns="http://www.w3.org/2000/svg">
<g clip-path="url(#clip0_176_785)">
<path fill-rule="evenodd" clip-rule="evenodd" d="M4 5.66669C4 2.90526 6.23857 0.666687 9 0.666687C11.7614 0.666687 14 2.90526 14 5.66669C14 8.4281 11.7614 10.6667 9 10.6667C6.23857 10.6667 4 8.4281 4 5.66669Z" fill="#858585"/>
<path fill-rule="evenodd" clip-rule="evenodd" d="M3.52578 13.0854C4.87989 12.5177 6.68608 12.3333 9 12.3333C11.3092 12.3333 13.1126 12.517 14.4655 13.0817C15.9177 13.6879 16.809 14.7177 17.2842 16.2156C17.4607 16.7722 17.0432 17.3333 16.466 17.3333H1.52882C0.954014 17.3333 0.538989 16.7747 0.71408 16.2211C1.18781 14.7234 2.07599 13.6931 3.52578 13.0854Z" fill="#858585"/>
</g>
<defs>
<clipPath id="clip0_176_785">
<rect width="18" height="18" fill="white"/>
</clipPath>
</defs>
</svg>
