<svg width="140" height="58" viewBox="0 0 140 58" fill="none" xmlns="http://www.w3.org/2000/svg">
<g opacity="0.8">
<path d="M0 52.8848L1.62213 52.5915C1.62213 52.5915 -0.106037 50.8182 0.9453 49.7285C1.99664 48.6388 3.60748 49.6022 3.60748 49.6022C3.60748 49.6022 3.35931 47.0099 5.36498 46.4662C7.37064 45.9225 9.13264 49.8007 9.13264 49.8007C9.13264 49.8007 9.42819 48.8983 10.924 49.248C12.4198 49.5977 13.6042 51.6439 13.6042 51.6439L32.1605 52.8848" fill="white"/>
<path d="M0 52.8847L1.61987 52.5801C1.25359 52.2256 0.960738 51.8024 0.758044 51.3347C0.221095 50.236 0.983653 49.2117 2.15456 49.1756C2.67231 49.1771 3.18078 49.3131 3.63005 49.5705L3.57364 49.6066C3.5472 49.2153 3.573 48.8223 3.65035 48.4379C3.93687 46.7075 5.71693 45.6652 7.1518 46.9489C8.05423 47.7047 8.6724 48.7335 9.18228 49.7803H9.08978C9.18931 49.546 9.37392 49.3582 9.60642 49.2546C10.7931 48.7741 12.0295 49.5885 12.7853 50.4661C13.1054 50.8112 13.3827 51.1938 13.611 51.6055L32.1651 52.8801L13.6065 51.6754C13.5839 51.6754 13.5884 51.6754 13.5794 51.6573C13.3295 51.2571 13.0449 50.8796 12.7289 50.5293C12.1084 49.8367 11.2895 49.2163 10.3216 49.2208C9.87039 49.2027 9.36051 49.3877 9.19356 49.8231L9.15069 49.9292L9.10106 49.8277C8.59118 48.8011 7.97302 47.7972 7.09314 47.0369C6.14558 46.1705 4.86864 46.3443 4.16023 47.4046C3.76838 48.0687 3.59258 48.8382 3.65712 49.6066V49.6765L3.5962 49.6427C3.15871 49.3889 2.66259 49.2536 2.15682 49.2501C1.42359 49.2501 0.620423 49.8051 0.638472 50.5925C0.65652 51.3798 1.14609 52.0431 1.64243 52.6049H1.62438L0 52.8892V52.8847Z" fill="#263238"/>
</g>
<path d="M67.1864 10.1884C65.7041 11.4991 64.1429 13.304 62.1643 13.8229C60.6121 14.2245 58.981 13.7665 57.5957 13.0491C54.5478 11.4698 51.6577 8.15561 52.7113 4.49173C53.1332 3.02753 55.0622 1.28808 56.7136 1.82954C57.5596 2.1093 58.2049 2.73198 58.911 3.24862C59.3368 3.58338 59.8325 3.81804 60.3613 3.9352C60.8901 4.05237 61.4385 4.04903 61.9658 3.92545C64.1722 3.44716 65.2033 2.36198 67.0285 1.14369C67.2015 1.0112 67.4 0.915941 67.6116 0.863913C67.8232 0.811885 68.0433 0.80421 68.258 0.841375C69.1955 1.03718 70.036 1.5523 70.6359 2.29881C71.1639 3.11777 71.0488 4.40148 71.0872 5.33325C71.1255 6.26501 70.8796 6.91251 70.1734 7.56001C69.1875 8.45116 68.1813 9.31299 67.1864 10.1884Z" fill="#263238"/>
<path d="M66.6131 10.96C67.8946 9.67858 69.149 8.3723 70.4147 7.07505C70.4147 7.07505 70.4147 7.05249 70.4147 7.06152C69.343 8.09932 68.2578 9.12132 67.1997 10.1727C66.1416 11.224 65.1692 12.3362 64.0412 13.2725C61.5189 15.3775 58.3626 13.5794 56.7405 11.3007C56.6661 11.1969 56.5149 11.3255 56.5871 11.427C58.0761 13.3831 60.5646 15.1451 63.1094 14.0531C64.4924 13.4575 65.5641 12.0091 66.6131 10.96Z" fill="#263238"/>
<path d="M67.2629 1.15499C67.2899 1.13243 67.2629 1.09408 67.2268 1.11438C65.7671 2.17926 64.1653 3.55998 62.295 3.74272C61.3739 3.83097 60.4476 3.63911 59.6373 3.19224C58.9966 2.83578 58.5273 2.2898 57.9746 1.82279C55.8155 0.00213158 52.8781 2.32364 52.9999 4.8076C52.9999 4.85949 53.0924 4.85723 53.0924 4.8076C53.0924 3.00273 54.3964 1.3445 56.296 1.30389C57.8211 1.27005 58.6356 2.89895 59.9374 3.47876C62.6356 4.67449 65.2504 2.84029 67.2629 1.15499Z" fill="#263238"/>
<path d="M57.5507 19.2307C57.5507 19.2307 57.386 17.6717 57.3951 17.3491C57.4041 17.0265 59.051 15.9142 59.051 15.9142C59.051 15.9142 59.4391 12.9362 59.7504 12.2639C59.8362 12.0766 62.645 11.8127 63.0105 12.1466C63.376 12.4805 65.1741 19.3525 65.1741 19.3525L57.5507 19.2307Z" fill="#C53F3F"/>
<path opacity="0.5" d="M57.5507 19.2307C57.5507 19.2307 57.386 17.6717 57.3951 17.3491C57.4041 17.0265 59.051 15.9142 59.051 15.9142C59.051 15.9142 59.4391 12.9362 59.7504 12.2639C59.8362 12.0766 62.645 11.8127 63.0105 12.1466C63.376 12.4805 65.1741 19.3525 65.1741 19.3525L57.5507 19.2307Z" fill="white"/>
<path d="M67.9581 11.2958C69.5373 14.4543 72.0957 18.0799 72.9215 18.5672C73.9796 19.1831 79.2949 19.1335 79.5859 19.0951C80.3056 18.9958 80.2492 14.1114 79.4754 14.1836C78.3 14.2941 75.0783 14.7499 74.7692 14.5558C74.4601 14.3618 72.1702 12.5727 69.7742 10.5197C68.1295 9.10063 66.9789 9.33752 67.9581 11.2958Z" fill="#D3766A"/>
<path d="M81.6529 13.6784C82.5049 13.4971 83.3933 13.6093 84.1736 13.9966C84.9025 14.3577 85.0537 15.6147 84.9228 15.8922C84.7919 16.1698 83.6952 17.7698 82.9617 17.4245C82.2283 17.0792 83.298 15.9554 83.3431 15.7907C83.3883 15.6259 83.4514 15.4161 83.307 15.3664C83.1626 15.3168 80.1928 15.319 80.1928 15.319L81.6529 13.6784Z" fill="#D3766A"/>
<path d="M81.7832 13.6536C81.8239 13.6716 84.1573 13.8251 84.8862 14.1861C85.6151 14.5472 85.764 15.8042 85.6331 16.0817C85.5022 16.3593 84.4077 17.9593 83.6743 17.614C82.9409 17.2687 84.0106 16.1449 84.0557 15.9802C84.1008 15.8154 84.164 15.6078 84.0173 15.5559C83.8707 15.504 80.9054 15.5085 80.9054 15.5085L81.7832 13.6536Z" fill="#D3766A"/>
<path d="M83.4689 17.4017C83.4522 17.2334 83.4802 17.0637 83.5502 16.9097C83.6099 16.7477 83.6935 16.5956 83.7984 16.4584C83.9017 16.3461 83.9953 16.2254 84.0782 16.0973C84.1421 15.9615 84.1701 15.8115 84.1595 15.6618C84.1595 15.5309 84.0286 15.5151 83.9203 15.5038C83.7587 15.4948 83.5967 15.4948 83.4351 15.5038L82.9161 15.5219C82.7365 15.5211 82.5572 15.5317 82.379 15.5535C82.3766 15.5545 82.3745 15.5563 82.3731 15.5585C82.3716 15.5607 82.3708 15.5633 82.3708 15.5659C82.3708 15.5685 82.3716 15.5711 82.3731 15.5733C82.3745 15.5755 82.3766 15.5772 82.379 15.5783C82.5293 15.5862 82.68 15.5862 82.8303 15.5783C82.9996 15.5783 83.1711 15.5783 83.3403 15.5783C83.5096 15.5783 83.6585 15.5783 83.8187 15.5783C83.8956 15.5701 83.9733 15.5817 84.0444 15.6122C84.094 15.6505 84.0444 15.8017 84.0444 15.8514C84.0133 15.9981 83.9395 16.1324 83.8323 16.2373C83.7313 16.3498 83.6421 16.4722 83.566 16.6028C83.4924 16.725 83.4419 16.8596 83.417 17C83.4083 17.1337 83.4167 17.2679 83.4419 17.3994C83.4419 17.4243 83.4712 17.4197 83.4689 17.4017Z" fill="#263238"/>
<path d="M82.1217 13.5951C82.1668 13.5951 84.4844 13.295 85.2698 13.5049C86.0551 13.7147 86.4522 14.9153 86.3778 15.2132C86.3033 15.511 85.5473 17.2983 84.7598 17.102C83.9722 16.9057 84.8004 15.5968 84.8094 15.4275C84.8184 15.2583 84.8433 15.0394 84.6898 15.0168C84.5363 14.9943 81.6298 15.5878 81.6298 15.5878L82.1217 13.5951Z" fill="#D3766A"/>
<path d="M84.5157 16.9369C84.4675 16.7748 84.4621 16.603 84.4999 16.4382C84.5248 16.2657 84.5766 16.0982 84.6533 15.9417C84.7313 15.8102 84.7992 15.6729 84.8564 15.531C84.8941 15.3829 84.8941 15.2278 84.8564 15.0797C84.8226 14.9533 84.6962 14.9623 84.5879 14.9736C84.4275 14.9929 84.2684 15.0223 84.1117 15.0616C83.9425 15.0977 83.7755 15.1406 83.6062 15.179C83.4305 15.215 83.2572 15.2617 83.0872 15.3189C83.0737 15.3189 83.0759 15.3437 83.0872 15.3415C83.239 15.3227 83.3897 15.2956 83.5385 15.2602L84.0418 15.1654C84.1975 15.1384 84.3532 15.1022 84.5112 15.0774C84.5853 15.0591 84.6627 15.0591 84.7368 15.0774C84.7932 15.1045 84.7865 15.2602 84.7865 15.3031C84.785 15.4528 84.7395 15.5988 84.6556 15.7228C84.5779 15.8526 84.5144 15.9903 84.466 16.1335C84.4189 16.2684 84.396 16.4105 84.3983 16.5533C84.4172 16.6856 84.4521 16.8152 84.5021 16.9392C84.4931 16.964 84.5224 16.9527 84.5157 16.9369Z" fill="#263238"/>
<path d="M82.0075 21.2486L83.0959 21.801L86.9903 14.128L85.9019 13.5756L82.0075 21.2486Z" fill="#263238"/>
<path d="M87.1802 17.7362L85.0093 16.9315L84.5308 18.2222L86.7018 19.027L87.1802 17.7362Z" fill="#263238"/>
<path d="M87.9085 17.7133L86.4972 17.1901L85.8258 19.0014L87.2371 19.5246L87.9085 17.7133Z" fill="#263238"/>
<path d="M78.5436 14.4793C78.5436 14.4793 81.1697 13.7438 81.7833 13.6536C82.5955 13.5318 83.8702 13.9311 83.9131 14.5786C83.9131 14.7658 83.1054 15.551 83.0467 15.7066C82.8798 16.124 82.9091 17.0603 83.6017 17.3694C84.2943 17.6785 85.2081 16.8866 85.8871 17.0716C86.5662 17.2566 85.6096 18.2131 84.8516 18.6689C84.0833 19.091 83.211 19.2866 82.3361 19.2329C81.6412 19.1765 79.4392 19.0998 79.4392 19.0998L78.5436 14.4793Z" fill="#D3766A"/>
<path d="M84.6757 17.2797C84.3236 17.3565 83.9106 17.4761 83.5654 17.3294C83.2201 17.1827 83.0892 16.8419 83.0621 16.4809C83.0163 16.1157 83.1115 15.7469 83.3284 15.4496C83.5474 15.1925 83.8357 15.0037 84.1589 14.9057C84.5544 14.788 84.9648 14.7279 85.3775 14.7275C85.3955 14.7275 85.391 14.6981 85.3775 14.6981C84.9961 14.6981 83.8294 14.6282 83.2246 15.3999C83.0056 15.7048 82.9112 16.0817 82.9606 16.4538C82.9522 16.6289 82.9878 16.8033 83.0643 16.961C83.1408 17.1187 83.2557 17.2547 83.3984 17.3565C83.7865 17.5821 84.2898 17.4151 84.696 17.3068C84.7095 17.2933 84.6937 17.2752 84.6757 17.2797Z" fill="#263238"/>
<path d="M79.4344 13.8251L79.0261 19.7812C79.0261 19.7812 73.9702 19.5736 72.8805 18.8494C71.7908 18.1252 69.0316 13.701 67.9983 11.481C66.965 9.26106 68.1585 9.03544 69.5979 10.2425C71.0373 11.4495 74.5974 14.3643 74.7688 14.4049C74.9403 14.4455 79.4344 13.8251 79.4344 13.8251Z" fill="#455A64"/>
<path d="M77.9681 17.4328C78.0222 16.7289 78.0809 16.0251 78.1079 15.3189C78.1237 14.9173 78.1418 14.518 78.1553 14.1164C78.1553 14.1006 78.1283 14.0984 78.1283 14.1164C78.0448 14.8203 77.9658 15.5265 77.9139 16.2349C77.862 16.9433 77.8101 17.6427 77.7695 18.3466C77.747 18.7482 77.7357 19.1475 77.738 19.5491H77.7515C77.8553 18.8474 77.9139 18.1413 77.9681 17.4328Z" fill="#263238"/>
<path d="M79.0577 19.1879L79.0171 19.7813C79.0171 19.7813 73.959 19.5737 72.8715 18.8517C71.7841 18.1298 69.0226 13.7011 67.9894 11.4811C67.2336 9.85898 67.669 9.29947 68.5195 9.5905C71.1637 11.9504 76.1586 16.44 79.0577 19.1879Z" fill="#37474F"/>
<path d="M60.7701 20.9587L72.5988 21.1528L71.6716 17.6107C71.6716 17.6107 72.653 16.7083 72.1656 14.9282C71.8836 13.8859 70.5729 11.9186 69.7494 10.9282C67.7392 8.51189 65.993 9.60384 65.4357 10.2243C63.3082 12.5977 60.7701 20.9587 60.7701 20.9587Z" fill="#455A64"/>
<path d="M65.9408 9.80463L68.5782 9.86554L68.6842 9.93548L65.8438 9.87005C65.8754 9.84749 65.898 9.82493 65.9408 9.80463ZM65.0204 10.7544L69.6905 10.8605L69.6318 10.7905L65.07 10.6868L65.0204 10.7544ZM64.4631 11.6411L70.4034 11.7787L70.3538 11.711L64.5037 11.5779C64.4889 11.5981 64.4753 11.6192 64.4631 11.6411ZM63.9916 12.5435L71.0261 12.706C71.0103 12.6834 70.9967 12.6586 70.9809 12.6338L64.0232 12.4758C64.0119 12.4894 64.0006 12.5119 63.9916 12.5345V12.5435ZM63.5629 13.446L71.5766 13.6287L71.5382 13.5633L63.5945 13.3805L63.5629 13.446ZM63.1704 14.3484L72.0255 14.5514C72.0255 14.5289 72.0075 14.5063 71.9984 14.4815L63.1997 14.2807L63.1704 14.3484ZM62.8004 15.2395L72.2759 15.4651C72.2759 15.4448 72.2759 15.4223 72.2759 15.3997L62.841 15.1741C62.8162 15.1696 62.8071 15.1922 62.8004 15.2125V15.2395ZM62.4462 16.142L72.2669 16.3676C72.2669 16.345 72.2669 16.3225 72.2669 16.2999L62.4642 16.0743L62.4462 16.142ZM62.11 17.0444L71.9601 17.27L71.9962 17.2046L62.1348 16.979L62.11 17.0444ZM61.7874 17.9468L71.8044 18.1724L71.7864 18.1048L61.8122 17.8792C61.8009 17.8521 61.7964 17.8746 61.7874 17.8972V17.9468ZM61.4738 18.8493L72.0413 19.0929L72.0233 19.0252L61.4986 18.7184C61.492 18.743 61.4837 18.7671 61.4738 18.7906V18.8493ZM61.176 19.7517L72.2805 20.0066L72.2624 19.9367L61.2076 19.684L61.176 19.7517ZM60.8872 20.6541L72.5173 20.9204L72.4993 20.8504L60.9075 20.5233C60.8985 20.5391 60.894 20.5639 60.8872 20.5842V20.6541Z" fill="white"/>
<path d="M68.5059 17.4033C69.0116 17.3578 69.52 17.3495 70.0269 17.3784C70.2797 17.3965 70.5279 17.4258 70.7784 17.4597C70.9025 17.4777 71.0289 17.4913 71.153 17.5026C71.2834 17.5195 71.4153 17.5195 71.5457 17.5026C71.5592 17.5026 71.5615 17.5184 71.5457 17.5206C71.4247 17.5499 71.3018 17.5702 71.1778 17.5815C71.0576 17.5894 70.937 17.5894 70.8168 17.5815C70.5595 17.5657 70.3045 17.5387 70.0495 17.5184C69.535 17.4822 69.0205 17.4461 68.5037 17.4461C68.4992 17.4444 68.4954 17.4414 68.4928 17.4374C68.4902 17.4334 68.489 17.4286 68.4892 17.4239C68.4895 17.4191 68.4912 17.4146 68.4942 17.4109C68.4972 17.4072 68.5013 17.4045 68.5059 17.4033Z" fill="#263238"/>
<path d="M67.3556 18.0666C67.7585 17.9499 68.1676 17.8558 68.5809 17.7845C68.7863 17.7484 68.9939 17.7258 69.2038 17.7077L69.5017 17.6874C69.6122 17.6874 69.7273 17.6874 69.8334 17.6874C69.8447 17.6874 69.8492 17.7032 69.8334 17.7032C69.7318 17.7145 69.628 17.7416 69.5265 17.7574L69.2173 17.8048L68.5967 17.9041C68.1838 17.965 67.7708 18.0282 67.3601 18.1027C67.3398 18.1049 67.3353 18.0733 67.3556 18.0666Z" fill="#263238"/>
<path d="M66.83 9.9198C66.8909 10.1319 67.9806 11.4697 68.9575 11.375C69.2756 11.3434 69.1831 9.60169 69.1831 9.60169L69.2057 9.47309L69.508 7.66371L67.3241 6.40932L67.0082 6.24463C67.0082 6.24463 66.9564 6.74999 66.8954 7.37267V7.46292C66.8954 7.49901 66.8954 7.53285 66.8842 7.56444C66.8729 7.65919 66.8638 7.75395 66.8548 7.85096C66.8458 7.94797 66.8435 7.9931 66.839 8.07657C66.8345 8.16005 66.839 8.22773 66.8232 8.30218C66.789 8.84092 66.7912 9.38136 66.83 9.9198Z" fill="#D3766A"/>
<path d="M66.9045 7.3707C67.1121 7.868 67.4252 8.31425 67.8223 8.67857C68.2193 9.0429 68.6908 9.31658 69.2041 9.48068L69.5087 7.66407L67.3243 6.40936L67.0084 6.24463C67.0084 6.24463 66.9655 6.74335 66.9045 7.3707Z" fill="#263238"/>
<path d="M71.8408 4.3832C72.7026 7.5124 70.9383 8.38099 70.2615 8.56599C69.6501 8.7352 67.5429 9.22928 66.363 6.20612C65.183 3.18296 66.3494 1.79773 67.7347 1.34651C69.1199 0.895291 70.9789 1.25627 71.8408 4.3832Z" fill="#D3766A"/>
<path d="M71.2518 3.96641C71.1751 3.96641 71.1029 3.96641 71.0262 3.96641C70.949 3.97864 70.87 3.966 70.8005 3.93031C70.7808 3.91456 70.7668 3.89279 70.7607 3.86832C70.7546 3.84386 70.7567 3.81807 70.7666 3.79491C70.7935 3.75145 70.8316 3.71597 70.8768 3.69217C70.9221 3.66836 70.9728 3.65708 71.0239 3.65951C71.1284 3.64958 71.2328 3.6785 71.3173 3.74075C71.3385 3.7556 71.3545 3.77673 71.3632 3.80116C71.3718 3.8256 71.3725 3.85212 71.3653 3.877C71.3581 3.90188 71.3433 3.92388 71.3229 3.93992C71.3026 3.95595 71.2777 3.96522 71.2518 3.96641Z" fill="#263238"/>
<path d="M69.0566 4.41062C69.1288 4.38354 69.1897 4.34743 69.2597 4.31358C69.3352 4.28872 69.4002 4.23951 69.4447 4.17367C69.4553 4.15023 69.4576 4.12395 69.4515 4.09901C69.4454 4.07406 69.4311 4.05189 69.4109 4.03601C69.3666 4.01046 69.3164 3.99701 69.2653 3.99701C69.2142 3.99701 69.164 4.01046 69.1198 4.03601C69.0208 4.07502 68.9402 4.14998 68.8941 4.24588C68.8824 4.26869 68.8783 4.2946 68.8822 4.31992C68.8861 4.34525 68.8978 4.3687 68.9158 4.38694C68.9338 4.40518 68.9571 4.41729 68.9824 4.42154C69.0076 4.42579 69.0336 4.42197 69.0566 4.41062Z" fill="#263238"/>
<path d="M69.7852 5.14801C69.7852 5.14801 69.7694 5.16381 69.7739 5.17283C69.8394 5.3827 69.8777 5.62416 69.7062 5.75956C69.7062 5.75956 69.7062 5.77536 69.7062 5.77085C69.9364 5.67381 69.88 5.33757 69.7852 5.14801Z" fill="#263238"/>
<path d="M69.5328 4.97904C69.183 5.04674 69.3455 5.74179 69.6704 5.6786C69.9954 5.61541 69.8261 4.92036 69.5328 4.97904Z" fill="#263238"/>
<path d="M69.4042 5.04661C69.3546 5.10077 69.3117 5.18427 69.2395 5.20909C69.1673 5.23392 69.0748 5.17976 69.0138 5.12334C69.0432 5.25874 69.1267 5.38286 69.2733 5.36932C69.42 5.35578 69.4742 5.21586 69.4764 5.07595C69.4561 5.0579 69.4268 5.0263 69.4042 5.04661Z" fill="#263238"/>
<path d="M70.9698 4.82318C70.9698 4.82318 70.9878 4.82318 70.9901 4.83672C71.033 5.06239 71.1165 5.28805 71.3286 5.32416V5.33544C71.0871 5.35575 70.9743 5.03531 70.9698 4.82318Z" fill="#263238"/>
<path d="M71.1098 4.55287C71.4505 4.44906 71.6356 5.13734 71.3219 5.22987C71.0082 5.32239 70.8254 4.64088 71.1098 4.55287Z" fill="#263238"/>
<path d="M71.2676 4.55942C71.3308 4.58199 71.403 4.63389 71.4685 4.62035C71.5339 4.60681 71.5813 4.51654 71.6106 4.43304C71.6106 4.43304 71.6106 4.43304 71.6219 4.43304C71.6503 4.49043 71.6573 4.55607 71.6416 4.61814C71.6258 4.6802 71.5885 4.73461 71.5362 4.77154C71.4256 4.8257 71.3105 4.73544 71.2451 4.61132C71.2315 4.59327 71.2405 4.55265 71.2676 4.55942Z" fill="#263238"/>
<path d="M70.1848 6.91931C70.2402 6.97382 70.3128 7.00734 70.3902 7.01409C70.4716 6.99735 70.5485 6.9635 70.6158 6.91479C70.6158 6.91479 70.6316 6.91479 70.6271 6.91479C70.6047 6.96357 70.5692 7.00519 70.5246 7.03506C70.48 7.06493 70.428 7.08188 70.3744 7.08404C70.3277 7.08245 70.2826 7.0664 70.2454 7.0381C70.2082 7.00981 70.1808 6.97066 70.1668 6.92608C70.151 6.92157 70.1668 6.9148 70.1848 6.91931Z" fill="#263238"/>
<path d="M70.8798 5.92241C70.9407 6.07009 70.9942 6.22072 71.04 6.37374C71.04 6.38953 71.0107 6.40533 70.9588 6.42113C70.8353 6.47719 70.6987 6.498 70.5641 6.48127C70.4295 6.46455 70.3021 6.41093 70.1961 6.32635C70.1825 6.31507 70.1961 6.29475 70.2141 6.29927C70.4392 6.38273 70.6851 6.39222 70.9159 6.32635C70.9159 6.28122 70.6903 5.8028 70.7106 5.79603C70.8303 5.77878 70.9519 5.77878 71.0716 5.79603C70.8324 5.14386 70.4917 4.53682 70.2638 3.88238C70.2633 3.87778 70.2643 3.87315 70.2666 3.86913C70.2689 3.86512 70.2724 3.86191 70.2766 3.85994C70.2808 3.85797 70.2855 3.85733 70.2901 3.85812C70.2946 3.8589 70.2988 3.86107 70.3021 3.86433C70.6878 4.50784 71.0083 5.1882 71.2589 5.89533C71.286 5.9698 70.9475 5.93369 70.8798 5.92241Z" fill="#263238"/>
<path d="M70.9179 6.36227C70.8665 6.50761 70.7787 6.63735 70.6629 6.73914C70.5988 6.79212 70.5201 6.82438 70.4373 6.83166C70.2545 6.83166 70.1981 6.68723 70.1868 6.54506C70.1779 6.4701 70.1779 6.39436 70.1868 6.3194C70.4196 6.41164 70.6759 6.42667 70.9179 6.36227Z" fill="#263238"/>
<path d="M70.6631 6.73895C70.599 6.79193 70.5203 6.82419 70.4374 6.83147C70.2546 6.83147 70.1982 6.68704 70.187 6.54487C70.2766 6.51985 70.372 6.52533 70.4582 6.56047C70.5444 6.5956 70.6165 6.65838 70.6631 6.73895Z" fill="#FF9BBC"/>
<path d="M66.5048 6.56977C66.6881 6.42631 66.8314 6.23799 66.9207 6.023C67.01 5.80801 67.0424 5.57362 67.0147 5.34247C67.5216 4.97967 67.9227 4.48826 68.1765 3.91887C68.1765 3.98881 68.1156 4.49643 68.0795 4.75363C70.0265 3.9482 70.3356 2.27193 70.3356 2.27193C70.798 2.54618 71.1928 2.92092 71.4907 3.36839C71.4907 3.36839 71.2426 2.12303 70.4259 1.4259C70.157 1.17875 69.827 1.00804 69.47 0.931474C69.1129 0.854909 68.7419 0.875279 68.3954 0.990472C67.8693 0.975753 67.3489 1.10288 66.8888 1.35851C66.4288 1.61415 66.046 1.98888 65.7806 2.44339C64.7698 4.14899 66.5048 6.56977 66.5048 6.56977Z" fill="#263238"/>
<path d="M69.5508 4.09278C69.2626 4.33997 68.9394 4.54302 68.5917 4.69531C69.1287 4.41913 69.578 3.99869 69.8893 3.48123C70.0208 3.26038 70.1239 3.02381 70.1962 2.77714C70.2864 2.51013 70.3224 2.22781 70.3022 1.94669C70.3022 1.92638 70.3316 1.92413 70.3338 1.94669C70.3812 2.22224 70.3812 2.50385 70.3338 2.7794C70.2791 3.05136 70.1742 3.31077 70.0247 3.54441C69.8919 3.75157 69.73 3.93853 69.544 4.09955L69.5508 4.09278Z" fill="#263238"/>
<path d="M65.731 6.53622L65.5911 6.49786C65.6092 6.43242 65.7717 5.86374 66.0718 5.74639C66.3719 5.62904 68.2698 5.40563 68.351 5.39661L68.3668 5.53878C67.8184 5.60422 66.3358 5.79378 66.1237 5.87953C65.9116 5.96529 65.7717 6.37374 65.731 6.53622Z" fill="#A6A6A6"/>
<path d="M70.3357 5.24967L70.2228 5.16166C70.3537 4.99466 70.6742 4.73515 70.9969 4.95404L70.9156 5.07139C70.6358 4.87506 70.3492 5.23613 70.3357 5.24967Z" fill="#A6A6A6"/>
<g opacity="0.9">
<path d="M69.6998 6.4932C69.6159 6.52259 69.5288 6.54228 69.4403 6.55188C69.2405 6.5718 69.0391 6.53517 68.859 6.44618C68.679 6.35719 68.5276 6.21941 68.422 6.04854C68.3165 5.87767 68.2611 5.68058 68.2621 5.47975C68.2631 5.27892 68.3206 5.08241 68.4278 4.91263C68.5351 4.74286 68.6879 4.60663 68.8689 4.51949C69.0498 4.43235 69.2516 4.39779 69.4513 4.41976C69.6509 4.44173 69.8403 4.51935 69.998 4.64375C70.1557 4.76816 70.2752 4.93436 70.343 5.12341C70.3824 5.23046 70.4038 5.34333 70.4062 5.45739C70.4117 5.68226 70.3465 5.9032 70.2198 6.08904C70.0931 6.27488 69.9112 6.41624 69.6998 6.4932Z" fill="#37474F"/>
<g opacity="0.1">
<path d="M69.5973 4.44419L68.3268 5.84332C68.2617 5.6594 68.2484 5.4611 68.2885 5.27013L69.0196 4.46225C69.2069 4.40345 69.4067 4.3972 69.5973 4.44419Z" fill="white"/>
<path d="M70.221 4.88221L68.8309 6.42351C68.7705 6.38936 68.7131 6.3501 68.6594 6.30617L70.0992 4.7265C70.1447 4.77434 70.1856 4.82648 70.221 4.88221Z" fill="white"/>
<path d="M70.3611 5.1824L69.1289 6.5364H69.0815L70.3475 5.13727L70.3611 5.1824Z" fill="white"/>
</g>
</g>
<g opacity="0.9">
<path d="M71.911 6.006C71.8877 6.008 71.8643 6.008 71.841 6.006C71.4326 6.04662 71.0219 5.66525 70.9045 5.11688C70.8422 4.85725 70.8643 4.58451 70.9677 4.33833C71.0071 4.23138 71.0729 4.13612 71.1589 4.06137C71.245 3.98663 71.3485 3.93481 71.4599 3.91073C71.5713 3.88665 71.687 3.89108 71.7962 3.92362C71.9054 3.95616 72.0047 4.01575 72.0848 4.09687C72.2778 4.27779 72.4096 4.51446 72.4616 4.77386C72.5902 5.36737 72.3398 5.91573 71.911 6.006Z" fill="#37474F"/>
<g opacity="0.1">
<path d="M72.4592 4.77861L71.4279 5.90694C71.3056 5.83272 71.2002 5.73352 71.1188 5.61583L72.2787 4.33405C72.3652 4.47012 72.4264 4.62074 72.4592 4.77861Z" fill="white"/>
<path d="M71.8745 3.96605L70.8906 5.05376C70.8897 5.03648 70.8897 5.01915 70.8906 5.00186L71.8429 3.95026L71.8745 3.96605Z" fill="white"/>
</g>
</g>
<path d="M66.5752 7.29409C66.6269 7.30049 66.6792 7.30049 66.7309 7.29409C66.7823 7.29449 66.8335 7.2861 66.8821 7.26927C66.9456 7.25192 67.0042 7.22027 67.0536 7.17674C67.0935 7.14353 67.1285 7.10478 67.1574 7.06165C67.199 7.00075 67.2288 6.93264 67.2454 6.86081L66.9114 6.03939C66.9114 6.03939 66.0313 5.17282 65.6251 5.50455C65.2189 5.83628 66.0133 7.1948 66.5752 7.29409Z" fill="#D3766A"/>
<path d="M65.8662 5.89514C65.8662 5.89514 65.8662 5.90868 65.8662 5.91094C66.0529 5.96396 66.2263 6.05565 66.3752 6.18006C66.5241 6.30447 66.6452 6.45882 66.7305 6.63307C66.7019 6.5997 66.6664 6.57292 66.6265 6.55456C66.5866 6.53619 66.5432 6.52668 66.4992 6.52668C66.4553 6.52668 66.4118 6.53619 66.3719 6.55456C66.332 6.57292 66.2965 6.5997 66.2679 6.63307C66.2679 6.63307 66.2679 6.65338 66.2837 6.65112C66.345 6.61809 66.4151 6.6049 66.4842 6.61339C66.5533 6.62188 66.6181 6.65162 66.6696 6.69851C66.753 6.77921 66.8285 6.86761 66.8953 6.96254C66.9178 6.99188 66.9742 6.96254 66.9539 6.92644C66.8749 6.44577 66.383 5.85904 65.8662 5.89514Z" fill="#263238"/>
<path d="M65.1221 10.5585C63.3173 12.3634 58.8367 19.2986 60.1362 20.6365C61.4357 21.9743 69.3185 20.3612 71.4482 19.434C72.0799 19.1588 69.4832 15.1068 68.7409 15.2083C68.1272 15.2941 64.9665 16.4311 64.883 16.2484C64.7995 16.0657 65.3342 14.5631 66.178 11.8806C67.1616 8.79203 65.9185 9.75989 65.1221 10.5585Z" fill="#D3766A"/>
<path d="M67.3689 16.4264C68.2058 15.5835 69.136 14.8387 70.1416 14.2064C71.1208 13.6356 73.3881 12.6272 76.3391 14.2786C77.0407 14.6712 77.7604 15.7248 76.3842 15.5014C75.4073 15.3412 74.8365 14.9464 74.25 14.9577C74.25 14.9577 75.008 16.4061 74.5884 17.0919C74.2221 17.6926 73.8135 18.2663 73.3656 18.8088C73.2481 18.7487 73.1344 18.6817 73.0249 18.608C73.0249 18.608 72.5737 19.2127 71.4456 19.436L67.3689 16.4264Z" fill="#D3766A"/>
<path d="M71.1636 13.8095C71.7456 13.9201 72.9684 14.1773 73.9115 14.739C74.9515 15.3617 76.7835 16.8417 76.3142 17.6043C75.9713 18.1638 75.2223 17.6584 75.2223 17.6584C75.2223 17.6584 75.8517 18.43 75.4298 18.8677C75.0486 19.2647 74.4913 18.8406 74.4913 18.8406C74.4913 18.8406 74.7914 19.3753 74.3492 19.6866C73.8167 20.0611 73.273 18.8835 72.4067 18.7977C72.2149 18.7774 71.1636 13.8095 71.1636 13.8095Z" fill="#D3766A"/>
<path d="M73.0726 15.7268C73.9673 16.1289 74.7183 16.7941 75.2255 17.6337C75.2368 17.6562 75.2255 17.6766 75.2119 17.6585C74.5768 16.9334 73.8562 16.2878 73.0659 15.7358C73.0659 15.7358 73.0659 15.7245 73.0726 15.7268Z" fill="#263238"/>
<path d="M72.4726 16.792C73.32 17.2739 74.0217 17.9756 74.5036 18.823C74.5036 18.8456 74.5036 18.8659 74.49 18.8479C73.8925 18.0904 73.2112 17.403 72.459 16.7988C72.459 16.7988 72.4681 16.7898 72.4726 16.792Z" fill="#263238"/>
<path d="M74.2458 14.9465C74.7176 14.9624 75.1829 15.0617 75.6201 15.2399C75.858 15.322 76.1007 15.3898 76.3467 15.443C76.5724 15.4904 76.9019 15.5626 77.0576 15.3369C77.0906 15.2719 77.1054 15.1991 77.1002 15.1264C77.0951 15.0536 77.0702 14.9836 77.0282 14.9239C76.9121 14.753 76.7706 14.6008 76.6085 14.4726C76.6085 14.4726 76.6085 14.4568 76.6085 14.4613C76.7645 14.578 76.9082 14.7103 77.0373 14.8562C77.1231 14.957 77.1765 15.0812 77.1907 15.2128C77.1907 15.4949 76.9019 15.6212 76.6627 15.6145C76.5187 15.6053 76.3759 15.5827 76.2362 15.5468C76.103 15.5152 75.9699 15.4768 75.8367 15.4362C75.5659 15.3504 75.3019 15.2511 75.0311 15.1631C74.7707 15.083 74.5053 15.0197 74.2368 14.9736L74.2458 14.9465Z" fill="#263238"/>
<path d="M75.7396 16.3116C75.27 15.8283 74.7695 15.376 74.2412 14.9576C74.2412 14.9576 74.2412 14.9418 74.2412 14.9441C74.8173 15.2922 75.348 15.7107 75.8209 16.1898C76.0768 16.4481 76.2786 16.755 76.4144 17.0924C76.4754 17.2272 76.4817 17.3803 76.4321 17.5197C76.3824 17.659 76.2806 17.7736 76.1481 17.8394C76.0122 17.9078 75.8572 17.9285 75.708 17.898C75.5302 17.8501 75.3638 17.7673 75.2183 17.6543C75.2183 17.6543 75.2183 17.6363 75.2183 17.6408C75.3372 17.7253 75.4739 17.7815 75.6178 17.8049C75.7618 17.8284 75.9092 17.8186 76.0488 17.7762C76.1651 17.7277 76.2575 17.6352 76.3061 17.5189C76.3437 17.3779 76.3293 17.2281 76.2654 17.0969C76.1345 16.808 75.9569 16.5427 75.7396 16.3116Z" fill="#263238"/>
<path d="M67.8181 15.3795L70.0313 20.4828C70.0313 20.4828 60.6234 22.2606 59.8789 20.6069C59.1344 18.9531 62.972 12.7105 64.6708 10.9215C66.6381 8.8391 66.8547 9.57909 66.3719 11.4674C65.8665 13.4438 64.9235 16.2955 64.9235 16.2955L67.8181 15.3795Z" fill="#455A64"/>
<path d="M62.0357 17.5367C62.4802 17.2521 62.9448 17.0001 63.4258 16.783C63.9017 16.5694 64.3927 16.3914 64.8949 16.2504C65.1792 16.1669 65.4681 16.0969 65.7569 16.0247C65.7569 16.0247 65.7682 16.036 65.7569 16.0383C65.253 16.1822 64.758 16.3555 64.2743 16.5573C63.7936 16.7514 63.3152 16.9567 62.8391 17.1688C62.5705 17.2907 62.3088 17.4238 62.0447 17.5525L62.0357 17.5367Z" fill="#263238"/>
<path d="M67.7941 15.3647C67.7467 15.376 65.0387 16.1545 64.953 16.1906C64.9642 16.1523 65.6661 14.0287 65.6751 14.0084C65.7247 13.9227 65.9797 13.4556 66.0384 13.3314C65.973 13.442 65.7766 13.7083 65.7496 13.7602C65.8015 13.6203 66.0226 12.9072 66.0903 12.6815C66.0903 12.6815 66.0903 12.6815 66.079 12.6815C65.7293 13.3314 64.7047 16.4231 64.7092 16.4208C64.7138 16.4186 67.7535 15.4189 67.8076 15.3985C67.8121 15.3967 67.8157 15.3932 67.8176 15.3888C67.8195 15.3844 67.8196 15.3793 67.8178 15.3748C67.816 15.3704 67.8125 15.3668 67.8081 15.3649C67.8036 15.363 67.7986 15.3629 67.7941 15.3647Z" fill="#263238"/>
<path d="M67.8525 18.6472C67.611 18.0763 67.3718 17.5054 67.1055 16.9457C66.9566 16.6275 66.8076 16.3071 66.6542 15.9889C66.6542 15.9889 66.6271 15.9889 66.6316 15.9889C66.8573 16.5711 67.0829 17.1533 67.3244 17.7243C67.5659 18.2952 67.8141 18.8639 68.0691 19.4281C68.2195 19.7515 68.3738 20.0682 68.5317 20.3781H68.543C68.3422 19.7936 68.0984 19.2204 67.8525 18.6472Z" fill="#263238"/>
<path d="M70.151 20.5661C70.0608 20.4082 69.9525 20.1804 69.8577 20.0269C69.8329 19.9863 69.8013 19.9931 69.8216 20.0269C69.8871 20.1691 69.9412 20.3293 70.0066 20.4782L69.6096 20.5413L69.1583 20.6225C68.8605 20.6722 68.5605 20.7196 68.2559 20.7647C67.6543 20.8549 67.0451 20.9301 66.4285 20.9903C65.2051 21.1287 63.9754 21.204 62.7443 21.2159C62.4013 21.2159 62.0675 21.2159 61.7132 21.1933C61.3736 21.1837 61.0347 21.1559 60.698 21.1099C60.698 21.1099 60.6867 21.1234 60.698 21.1257C60.9871 21.197 61.2813 21.246 61.5779 21.2723C61.8892 21.2971 62.2006 21.3152 62.5119 21.3219C63.1323 21.3355 63.755 21.3219 64.3732 21.2813C65.6027 21.2114 66.8301 21.0873 68.0483 20.9158C68.3913 20.8662 68.7252 20.8143 69.0726 20.7579L69.587 20.6699C69.7776 20.6517 69.9664 20.617 70.151 20.5661Z" fill="#263238"/>
<path d="M88.9801 16.7243C88.4566 16.9957 87.9798 17.3491 87.5678 17.7711C87.0061 18.3915 86.2909 20.325 86.2909 20.325C86.2909 20.325 92.732 20.9815 92.714 20.501C92.6959 20.0204 88.9801 16.7243 88.9801 16.7243Z" fill="#263238"/>
<path d="M44.8895 18.1773C44.8895 18.1773 44.0141 12.6273 43.6464 12.3769C43.2786 12.1264 38.1257 12.0971 37.7805 12.3205C37.4354 12.5438 37.2662 14.9759 36.9729 15.0278C36.6796 15.0797 34.9221 15.285 34.3558 15.4948C33.7895 15.7046 33.7647 17.5794 33.7647 17.5794L44.8895 18.1773Z" fill="#C53F3F"/>
<path opacity="0.5" d="M44.8895 18.1773C44.8895 18.1773 44.0141 12.6273 43.6464 12.3769C43.2786 12.1264 38.1257 12.0971 37.7805 12.3205C37.4354 12.5438 37.2662 14.9759 36.9729 15.0278C36.6796 15.0797 34.9221 15.285 34.3558 15.4948C33.7895 15.7046 33.7647 17.5794 33.7647 17.5794L44.8895 18.1773Z" fill="white"/>
<path d="M126.862 44.6005L99.006 44.7855C99.006 44.7855 100.495 27.5557 113.896 28.7131C127.297 29.8705 126.862 44.6005 126.862 44.6005Z" fill="#C53F3F"/>
<path opacity="0.5" d="M126.862 44.6005L99.006 44.7855C99.006 44.7855 100.495 27.5557 113.896 28.7131C127.297 29.8705 126.862 44.6005 126.862 44.6005Z" fill="black"/>
<path d="M43.4862 44.5825L15.7093 42.4844C15.7093 42.4844 18.6039 25.4329 31.8651 27.6867C45.1264 29.9405 43.4862 44.5825 43.4862 44.5825Z" fill="#C53F3F"/>
<path opacity="0.5" d="M43.4862 44.5825L15.7093 42.4844C15.7093 42.4844 18.6039 25.4329 31.8651 27.6867C45.1264 29.9405 43.4862 44.5825 43.4862 44.5825Z" fill="black"/>
<path opacity="0.6" d="M105.154 18.8629L105.745 19.2013C105.745 19.2013 102.011 19.5465 101.188 19.454C100.364 19.3615 85.7516 10.3056 85.5486 10.2176C85.3455 10.1296 75.8361 6.53564 75.8361 6.53564C75.8361 6.53564 88.865 10.6846 89.7066 10.9892C90.5481 11.2937 105.154 18.8629 105.154 18.8629Z" fill="white"/>
<path d="M138.671 41.9111C138.671 41.9111 135.86 44.4808 134.987 44.7199C134.113 44.9591 126.03 45.6833 125.552 45.5254C125.073 45.3674 127.542 30.6758 113.727 29.8523C99.9135 29.0288 101.432 46.1413 101.093 46.1345C100.755 46.1277 42.0719 45.6833 41.8079 45.4419C41.5439 45.2005 43.5812 29.6831 30.1665 29.5139C17.3226 29.3515 18.0535 43.558 17.5459 43.5738C17.0383 43.5896 7.18597 42.4074 6.35799 42.1818C5.53 41.9562 4.32751 39.5625 4.23952 39.3549C4.15153 39.1474 4.41324 38.5992 4.41324 38.5992C4.41324 38.5992 3.14081 34.5382 3.07538 32.9228C3.00995 31.3075 6.05342 26.8201 6.05342 26.8201L8.18993 19.63C8.18993 19.63 7.19274 19.0344 7.06189 18.8291C6.93104 18.6238 6.7889 17.8499 6.7889 17.8499L27.378 16.1579C27.6132 15.993 27.8641 15.8517 28.127 15.736C28.3526 15.6773 29.6769 15.639 29.6769 15.639C29.6769 15.639 31.8337 17.2724 32.7159 17.4844C33.598 17.6965 92.069 20.555 92.3939 20.4512C92.7188 20.3474 84.351 12.0698 83.4959 11.2847C82.6408 10.4996 75.3559 8.48941 75.2679 8.27508C75.18 8.06076 75.1597 6.35741 75.3898 6.38223C75.6199 6.40704 84.8135 9.78441 85.867 10.371C86.9206 10.9576 100.983 19.2577 101.398 19.4224C101.813 19.5871 105.707 19.2284 105.745 19.1968C105.784 19.1652 105.154 18.9441 105.154 18.8629C105.154 18.7817 106.19 19.0208 106.413 19.0208C106.637 19.0208 123.42 21.5206 126.179 22.502C128.938 23.4834 133.058 26.0124 134.908 27.7902C136.758 29.568 138.461 32.2753 138.77 32.4581C139.079 32.6408 139.824 32.6837 139.954 33.8636C140.085 35.0436 139.918 36.2551 139.657 36.5078C139.395 36.7605 138.553 37.0244 138.468 37.1214C138.382 37.2184 138.269 40.0543 138.312 40.1581C138.355 40.2619 138.696 40.3431 138.732 40.5935C138.768 40.844 138.842 41.6291 138.671 41.9111Z" fill="#C53F3F"/>
<path opacity="0.3" d="M103.304 35.4138C102.982 36.0318 102.703 36.6719 102.472 37.3292C92.3191 37.0111 46.2746 35.5446 46.3649 35.0979C46.4551 34.6512 95.1979 35.2897 103.304 35.4138Z" fill="white"/>
<path d="M124.4 43.3197C125.241 37.2737 121.022 31.6907 114.976 30.8496C108.93 30.0085 103.347 34.2279 102.506 40.2738C101.665 46.3197 105.884 51.9028 111.93 52.7439C117.976 53.585 123.559 49.3656 124.4 43.3197Z" fill="#263238"/>
<path d="M116.692 49.196C120.776 47.4124 122.641 42.6553 120.858 38.5708C119.074 34.4863 114.317 32.6211 110.232 34.4047C106.148 36.1884 104.283 40.9454 106.066 45.0299C107.85 49.1144 112.607 50.9796 116.692 49.196Z" fill="#DBDBDB"/>
<path d="M118.721 47.064C121.627 44.1582 121.627 39.4471 118.721 36.5414C115.815 33.6357 111.104 33.6357 108.199 36.5414C105.293 39.4471 105.293 44.1582 108.199 47.064C111.104 49.9697 115.815 49.9697 118.721 47.064Z" fill="#A6A6A6"/>
<path d="M112.035 40.1242L114.347 39.788C113.402 38.775 115.55 34.4433 115.55 34.4433L114.275 34.2177C113.668 35.7248 113.323 36.1918 112.658 36.2888C111.992 36.3858 111.53 36.0361 110.512 34.7659L109.359 35.3503C109.359 35.3503 112.651 38.8833 112.035 40.1242Z" fill="#DBDBDB"/>
<path d="M114.562 39.901L115.597 41.9969C116.274 40.7854 121.05 41.4893 121.05 41.4893L120.874 40.2033C119.254 40.0928 118.704 39.9078 118.406 39.3009C118.108 38.694 118.298 38.148 119.191 36.7921L118.289 35.8739C118.289 35.8739 115.934 40.1041 114.562 39.901Z" fill="#DBDBDB"/>
<path d="M115.557 42.234L113.883 43.8674C115.236 44.1314 116.051 48.8962 116.051 48.8962L117.219 48.3322C116.825 46.753 116.829 46.1776 117.312 45.7084C117.795 45.2391 118.372 45.2459 119.94 45.6791L120.531 44.5284C120.531 44.5284 115.787 43.6012 115.557 42.234Z" fill="#DBDBDB"/>
<path d="M113.643 43.9009L111.575 42.8135C111.744 44.1897 107.462 46.4232 107.462 46.4232L108.364 47.3595C109.74 46.4977 110.293 46.324 110.889 46.6353C111.484 46.9466 111.656 47.5039 111.73 49.1283L113.007 49.3336C113.007 49.3336 112.416 44.5439 113.643 43.9009Z" fill="#DBDBDB"/>
<path d="M111.471 42.5969L111.863 40.2935C110.609 40.8778 107.153 37.4982 107.153 37.4982L106.541 38.6397C107.787 39.6843 108.121 40.1558 108.008 40.8191C107.895 41.4824 107.421 41.8163 105.898 42.3984L106.097 43.6776C106.097 43.6776 110.478 41.6268 111.471 42.5969Z" fill="#DBDBDB"/>
<path d="M111.315 42.0629C111.377 42.4856 111.563 42.8805 111.849 43.1977C112.135 43.5149 112.508 43.7402 112.922 43.845C113.336 43.9499 113.772 43.9296 114.175 43.7867C114.577 43.6439 114.928 43.3848 115.184 43.0424C115.439 42.7 115.587 42.2895 115.609 41.863C115.631 41.4364 115.526 41.0129 115.308 40.646C115.089 40.279 114.766 39.9852 114.381 39.8016C113.995 39.618 113.564 39.5528 113.141 39.6144C112.86 39.6553 112.591 39.7511 112.347 39.8963C112.103 40.0415 111.891 40.2332 111.721 40.4606C111.552 40.6879 111.429 40.9465 111.359 41.2214C111.289 41.4963 111.275 41.7823 111.315 42.0629Z" fill="#DBDBDB"/>
<path d="M35.6389 51.1923C40.8127 47.953 42.381 41.1329 39.1417 35.9591C35.9025 30.7853 29.0824 29.217 23.9086 32.4563C18.7348 35.6955 17.1665 42.5156 20.4057 47.6894C23.645 52.8632 30.4651 54.4315 35.6389 51.1923Z" fill="#263238"/>
<path d="M35.8973 47.0843C38.7989 43.7013 38.4087 38.6066 35.0257 35.7049C31.6427 32.8033 26.5479 33.1935 23.6463 36.5765C20.7446 39.9595 21.1349 45.0543 24.5179 47.9559C27.9009 50.8576 32.9956 50.4673 35.8973 47.0843Z" fill="#DBDBDB"/>
<path d="M36.913 43.9207C38.0684 39.9771 35.8082 35.8436 31.8646 34.6882C27.9211 33.5328 23.7876 35.793 22.6322 39.7365C21.4767 43.6801 23.737 47.8136 27.6805 48.969C31.6241 50.1244 35.7576 47.8642 36.913 43.9207Z" fill="#A6A6A6"/>
<path d="M28.3476 40.1516L30.6601 39.8154C29.7148 38.8002 31.8626 34.4707 31.8626 34.4707L30.5856 34.2451C29.9787 35.7522 29.6336 36.2192 28.968 36.3162C28.3025 36.4132 27.84 36.0635 26.8247 34.7933L25.6696 35.3777C25.6696 35.3777 28.9635 38.9107 28.3476 40.1516Z" fill="#DBDBDB"/>
<path d="M30.8744 39.9259L31.9077 42.0196C32.5845 40.8081 37.3629 41.512 37.3629 41.512L37.1869 40.2282C35.5671 40.1177 35.0166 39.9327 34.7188 39.3258C34.421 38.7189 34.6082 38.1729 35.5039 36.8148L34.6014 35.8988C34.6014 35.8988 32.2438 40.129 30.8744 39.9259Z" fill="#DBDBDB"/>
<path d="M31.8675 42.2609L30.1957 43.8921C31.5494 44.1583 32.3638 48.9232 32.3638 48.9232L33.5302 48.3591C33.1354 46.7799 33.1422 46.2046 33.6227 45.733C34.1033 45.2615 34.6854 45.2818 36.2511 45.706L36.8422 44.5531C36.8422 44.5531 32.0999 43.6281 31.8675 42.2609Z" fill="#DBDBDB"/>
<path d="M29.9563 43.9282L27.8874 42.8408C28.0544 44.217 23.7723 46.4506 23.7723 46.4506L24.6748 47.3868C26.051 46.525 26.6037 46.3513 27.1993 46.6626C27.7949 46.974 27.9664 47.5312 28.0386 49.1443L29.3155 49.3519C29.3155 49.3519 28.7267 44.569 29.9563 43.9282Z" fill="#DBDBDB"/>
<path d="M27.7702 42.6332L28.165 40.3298C26.9083 40.9141 23.4543 37.5345 23.4543 37.5345L22.8406 38.6761C24.086 39.7206 24.4199 40.1922 24.3093 40.8554C24.1988 41.5187 23.7205 41.8526 22.1999 42.4234L22.3984 43.7026C22.3984 43.7026 26.7888 41.6541 27.7702 42.6332Z" fill="#DBDBDB"/>
<path d="M27.6259 42.0902C27.6874 42.5128 27.8728 42.9076 28.1587 43.2249C28.4446 43.5421 28.8182 43.7675 29.2321 43.8724C29.646 43.9774 30.0818 43.9573 30.4844 43.8147C30.8869 43.672 31.2381 43.4132 31.4935 43.071C31.749 42.7288 31.8973 42.3185 31.9196 41.8921C31.942 41.4656 31.8374 41.0421 31.6191 40.6751C31.4008 40.308 31.0785 40.014 30.6931 39.83C30.3077 39.6461 29.8764 39.5806 29.4538 39.6417C28.8871 39.7249 28.3765 40.0293 28.0339 40.4882C27.6913 40.9472 27.5446 41.5232 27.6259 42.0902Z" fill="#DBDBDB"/>
<path d="M8.09919 19.9525C7.31858 20.1781 5.80249 22.2898 5.72804 22.7027C5.65359 23.1155 5.54981 25.8319 5.86792 26.1883C6.18602 26.5448 7.27797 27.3841 8.09919 27.2983C8.9204 27.2126 14.1117 24.7535 14.4162 24.3654C14.7208 23.9774 14.7005 21.9582 14.1906 21.3806C13.6808 20.803 9.09412 19.675 8.09919 19.9525Z" fill="white"/>
<path d="M14.4233 24.3769C14.1119 24.7559 8.92069 27.2128 8.10624 27.2985C7.48131 27.3639 6.69619 26.8879 6.22015 26.5021C6.87216 26.7954 7.45649 26.8811 7.88966 26.7728C8.32283 26.6645 13.3043 24.5371 13.7171 24.0294C14.13 23.5218 13.9112 21.8613 13.8051 21.5725C13.6991 21.2838 9.55691 19.9933 9.55691 19.9933C11.4249 20.1625 13.8435 20.9927 14.1954 21.383C14.7053 21.9674 14.7346 23.9956 14.4233 24.3769Z" fill="#EBEBEB"/>
<path d="M124.342 25.4127C124.901 26.7145 130.007 29.6248 131.981 30.2543C133.224 30.6513 137.601 31.5786 137.89 31.3823C138.179 31.186 136.486 27.9282 135.492 27.0484C134.497 26.1685 129.256 23.5131 127.577 23.3439C125.899 23.1746 123.776 24.0974 124.342 25.4127Z" fill="white"/>
<path d="M137.892 31.3867C137.601 31.5807 133.226 30.6512 131.981 30.2586C130.007 29.6269 124.901 26.7188 124.34 25.4148C123.778 24.1108 125.899 23.1858 127.577 23.3527C127.708 23.3657 127.838 23.3876 127.965 23.4181C126.33 23.7611 125.833 24.9275 126.677 25.76C127.521 26.5925 130.309 28.6568 131.471 29.1734C132.599 29.672 136.838 30.9896 137.256 30.7527C137.341 30.678 137.408 30.5855 137.452 30.4816C137.497 30.3778 137.517 30.2654 137.513 30.1526C137.824 30.8001 138 31.3145 137.892 31.3867Z" fill="#EBEBEB"/>
<g opacity="0.1">
<path d="M125.458 43.5536C125.486 44.7267 125.443 45.4893 125.551 45.5254C126.029 45.6833 134.111 44.9636 134.986 44.72C135.861 44.4763 138.67 41.9089 138.67 41.9089C138.67 41.9089 138.684 41.8863 138.688 41.8728C135.748 42.8584 132.683 43.4257 129.585 43.5581C129.021 43.5784 127.593 43.5761 125.458 43.5536Z" fill="black"/>
<path d="M41.6833 41.7557C41.8526 43.8403 41.7149 45.3654 41.7962 45.4421C42.0579 45.6903 100.736 46.119 101.079 46.1347C101.172 46.1347 101.129 44.9074 101.285 43.1229C83.3623 42.7484 60.2239 42.2114 41.6833 41.7557Z" fill="black"/>
<path d="M4.23921 39.3616C4.3272 39.5691 5.52744 41.9696 6.35768 42.1884C7.18792 42.4073 17.0222 43.5917 17.5298 43.5759C17.6629 43.5759 17.7126 42.5945 17.9427 41.1552C14.6876 41.0635 11.4412 40.7742 8.22121 40.2888C6.85239 39.9869 5.55764 39.4147 4.41293 38.6058C4.41293 38.6058 4.15123 39.1563 4.23921 39.3616Z" fill="black"/>
</g>
<g opacity="0.2">
<path d="M96.5179 43.0211C96.5179 39.5851 96.633 34.5878 96.6984 31.0999C96.7232 30.1072 96.748 29.1146 96.7616 28.1219C96.7825 27.9514 96.7671 27.7784 96.7165 27.6143C95.9359 26.1501 93.2804 21.9334 92.3938 20.4512C93.7768 22.5132 95.144 24.5888 96.4367 26.7118C96.6082 27.0412 96.8879 27.3751 96.9624 27.7383C96.9353 32.8371 96.7368 37.9291 96.5112 43.0211H96.5179Z" fill="black"/>
<path d="M54.4778 18.6734L53.7626 21.5296C53.5122 22.7118 53.0858 23.903 53.0564 25.11C53.1828 29.3108 53.3046 34.8789 53.3497 39.0978L53.3633 42.042L53.2392 39.109C53.0971 35.1902 52.9527 29.7711 52.8827 25.8613C52.8827 25.4281 52.8308 24.8009 52.9391 24.3768C53.3588 22.4501 53.916 20.5685 54.4778 18.6869V18.6734Z" fill="black"/>
<path d="M20.4692 34.1434C18.459 33.1146 16.4759 32.0339 14.5334 30.8788C14.1918 30.6532 13.8911 30.3709 13.6445 30.0441C13.2971 29.6425 12.9497 29.2386 12.618 28.8235C11.9412 27.9978 11.2914 27.1653 10.6575 26.3125L11.7088 27.5082C12.5029 28.3949 13.5588 29.7124 14.4048 30.5382C16.4105 31.761 18.4658 32.898 20.4692 34.1479V34.1434Z" fill="black"/>
<path d="M124.177 24.5844C118.859 23.9076 113.463 23.1834 108.172 22.2967C105.871 21.4304 103.647 20.4129 101.404 19.4293C102.46 19.8354 107.27 21.7869 108.229 22.1072C113.249 22.9036 119.182 23.7294 124.184 24.5889L124.177 24.5844Z" fill="black"/>
<path d="M62.9652 25.5928C62.823 26.0824 62.6335 26.6893 62.1327 26.9217C61.4585 26.9965 60.7793 27.0139 60.1022 26.9736C59.4277 26.9611 58.7554 26.8931 58.092 26.7705C58.013 26.7533 57.9369 26.7244 57.8664 26.6848C57.519 26.3667 57.3881 25.9087 57.246 25.48C57.4377 25.8568 57.6227 26.299 57.9476 26.5675C58.0778 26.6098 58.2127 26.6363 58.3492 26.6464C59.5201 26.7435 60.7181 26.7796 61.8935 26.7863C62.0264 26.8019 62.1601 26.7646 62.2658 26.6825C62.58 26.377 62.8214 26.0045 62.9719 25.5928H62.9652Z" fill="black"/>
<path d="M63.0057 24.8258C62.8906 24.4242 62.7552 23.9234 62.4191 23.6775C62.282 23.639 62.1414 23.6141 61.9994 23.603C61.0993 23.5232 60.195 23.5013 59.2921 23.5376C58.6807 23.5376 58.128 23.6527 57.6993 24.1152C57.478 24.3153 57.2906 24.5499 57.1443 24.81C57.2571 24.5246 57.4224 24.2629 57.6317 24.0384C57.8354 23.799 58.0887 23.6066 58.3739 23.4744C58.6725 23.3861 58.981 23.3354 59.2921 23.3233C60.2041 23.2645 61.1198 23.3008 62.0243 23.4316C62.1832 23.4547 62.3391 23.4955 62.489 23.5534C62.868 23.8647 62.9402 24.3769 63.0057 24.8258Z" fill="black"/>
<path d="M62.8205 24.7785C63.7522 24.9815 63.6936 25.5275 62.7618 25.6403C61.5954 25.7553 60.4223 25.7396 59.2536 25.7441C58.5316 25.6922 57.733 25.8343 57.0404 25.5185C56.6907 25.347 56.5892 24.9589 56.993 24.7649C57.7307 24.4784 58.5542 24.6296 59.319 24.598C60.4885 24.6001 61.6571 24.6611 62.8205 24.7807V24.7785ZM62.8205 24.7785C61.0901 24.5889 59.3123 24.6905 57.5796 24.8123C57.2931 24.8371 56.614 25.0379 57.1442 25.3222C57.5232 25.5162 57.9564 25.4778 58.3828 25.5117C59.8312 25.5636 61.3157 25.6854 62.7573 25.6087C63.68 25.5252 63.7455 24.9905 62.8205 24.7785Z" fill="black"/>
</g>
<path d="M138.47 37.1216C138.47 37.1216 133.208 37.5886 133.143 37.5729C133.078 37.5571 132.917 36.8329 132.477 36.8126C132.037 36.7922 130.51 38.0963 130.266 39.3507C130.023 40.605 130.309 41.5458 131.106 41.4511C131.902 41.3563 132.99 39.7455 132.99 39.7455C132.99 39.7455 137.028 39.5199 137.125 39.5943C137.287 39.74 137.46 39.8735 137.642 39.9936C137.861 40.07 138.088 40.1251 138.318 40.1583L138.47 37.1216Z" fill="#263238"/>
<path d="M88.5041 22.8C88.1476 22.2653 88.9937 18.2878 89.384 18.0239C89.7743 17.7599 94.2684 18.3668 94.1218 20.9162C93.9751 23.4656 89.0591 23.637 88.5041 22.8Z" fill="#C53F3F"/>
<path opacity="0.1" d="M88.5041 22.8C88.1476 22.2653 88.9937 18.2878 89.384 18.0239C89.7743 17.7599 94.2684 18.3668 94.1218 20.9162C93.9751 23.4656 89.0591 23.637 88.5041 22.8Z" fill="black"/>
<g opacity="0.4">
<path d="M43.4298 35.9936C42.2544 32.2282 39.4501 28.984 35.7974 27.4588C31.5447 25.751 26.3693 25.7961 22.4391 28.3094C20.0174 29.8962 18.1304 32.1763 17.0245 34.852C17.5011 33.4779 18.1926 32.1879 19.0731 31.0302C22.8926 25.8863 29.627 24.7132 35.4342 26.8903C39.3824 28.3613 42.4281 31.9507 43.4185 35.9981L43.4298 35.9936Z" fill="white"/>
<path d="M127.015 36.2415C125.84 32.4738 123.036 29.2296 119.383 27.7045C115.13 25.9966 109.955 26.044 106.025 28.5573C103.602 30.1435 101.715 32.4238 100.61 35.0999C101.09 33.7226 101.786 32.4304 102.672 31.2713C106.492 26.1297 113.226 24.9543 119.033 27.1314C122.981 28.6024 126.027 32.1941 127.017 36.2415H127.015Z" fill="white"/>
<path d="M88.3506 25.4867C70.6854 24.8099 52.842 23.8285 35.2107 22.5538C52.8759 23.2306 70.7192 24.2143 88.3506 25.4867Z" fill="white"/>
</g>
</svg>
