<svg width="54" height="52" viewBox="0 0 54 52" fill="none" xmlns="http://www.w3.org/2000/svg">
<path d="M4.72499 44.766L11.9097 39.015H45.225C46.2991 39.015 47.3292 38.5883 48.0888 37.8288C48.8483 37.0693 49.275 36.0392 49.275 34.965V8.64004C49.275 7.56591 48.8483 6.53578 48.0888 5.77626C47.3292 5.01673 46.2991 4.59004 45.225 4.59004H8.77499C7.70086 4.59004 6.67073 5.01673 5.91121 5.77626C5.15168 6.53578 4.72499 7.56591 4.72499 8.64004V44.766ZM13.3312 43.065L3.96359 50.5575C3.66583 50.7953 3.30703 50.9442 2.92842 50.9872C2.5498 51.0302 2.16675 50.9655 1.82327 50.8005C1.47979 50.6356 1.18982 50.377 0.986697 50.0546C0.783572 49.7322 0.67553 49.3591 0.674988 48.978V8.64004C0.674988 6.49179 1.52838 4.43152 3.04742 2.91247C4.56647 1.39343 6.62673 0.540039 8.77499 0.540039H45.225C47.3732 0.540039 49.4335 1.39343 50.9526 2.91247C52.4716 4.43152 53.325 6.49179 53.325 8.64004V34.965C53.325 37.1133 52.4716 39.1736 50.9526 40.6926C49.4335 42.2116 47.3732 43.065 45.225 43.065H13.3312Z" fill="#385F58"/>
<path d="M16.875 24.8399H37.125C38.475 24.8399 39.15 25.5149 39.15 26.8649C39.15 28.2149 38.475 28.8899 37.125 28.8899H16.875C15.525 28.8899 14.85 28.2149 14.85 26.8649C14.85 25.5149 15.525 24.8399 16.875 24.8399ZM16.875 12.6899H37.125C38.475 12.6899 39.15 13.3649 39.15 14.7149C39.15 16.0649 38.475 16.7399 37.125 16.7399H16.875C15.525 16.7399 14.85 16.0649 14.85 14.7149C14.85 13.3649 15.525 12.6899 16.875 12.6899Z" fill="#385F58"/>
</svg>
