<svg width="48" height="48" viewBox="0 0 48 48" fill="none" xmlns="http://www.w3.org/2000/svg">
<g clip-path="url(#clip0_154_60)">
<path d="M30.4601 13.5968C26.1105 10.2592 19.8933 11.0777 16.5558 15.4273C12.0281 21.3279 13.2118 36.0751 13.2118 36.0751C13.2118 36.0751 27.7629 33.4016 32.2906 27.5011C35.6281 23.1515 34.8096 16.9343 30.4601 13.5968ZM22.2672 24.274C21.522 23.7022 21.0344 22.8577 20.9118 21.9265C20.7892 20.9952 21.0416 20.0534 21.6134 19.3082C22.1852 18.5629 23.0296 18.0754 23.9609 17.9528C24.8922 17.8302 25.834 18.0826 26.5792 18.6544C27.3244 19.2262 27.812 20.0706 27.9346 21.0019C28.0572 21.9332 27.8048 22.875 27.233 23.6202C26.6612 24.3654 25.8167 24.8529 24.8855 24.9755C23.9542 25.0982 23.0124 24.8458 22.2672 24.274Z" fill="#385F58"/>
</g>
<defs>
<clipPath id="clip0_154_60">
<rect width="33.2816" height="34.0199" fill="white" transform="translate(21.153 0.374817) rotate(37.5)"/>
</clipPath>
</defs>
</svg>
